<svg xmlns="http://www.w3.org/2000/svg" xmlns:xlink="http://www.w3.org/1999/xlink" version="1.1" id="Layer_1" x="0px" y="0px" width="259.286px" height="284.931px" viewBox="0 0 259.286 284.931" enable-background="new 0 0 259.286 284.931" xml:space="preserve"><style>.style0{fill:	#FFFFFF;}.style1{stroke:	#C6C6C6;stroke-miterlimit:	10;fill:	none;}.style2{stroke:	#C6C6C6;stroke-width:	0.5;stroke-miterlimit:	10;fill:	none;}</style><path d="M0 0.5v284.431h259.286V0.5H0z M258.786 189.688c0 17.018-9.154 32.873-23.891 41.381l-81.361 47 c-7.236 4.179-15.498 6.388-23.891 6.388c-8.392 0-16.653-2.209-23.891-6.388l-81.36-46.974C9.655 222.6 0.5 206.7 0.5 189.7 V95.742c0-17.017 9.155-32.873 23.892-41.38l81.36-46.974C112.99 3.2 121.3 1 129.6 1c8.393 0 16.7 2.2 23.9 6.4 l81.361 46.974c14.736 8.5 23.9 24.4 23.9 41.38V189.688z" class="style0"/><path d="M129.643 284.431c-8.392 0-16.653-2.209-23.891-6.388l-81.36-46.974 C9.655 222.6 0.5 206.7 0.5 189.688V95.742c0-17.017 9.155-32.873 23.892-41.38l81.36-46.974C112.99 3.2 121.3 1 129.6 1 c8.393 0 16.7 2.2 23.9 6.387l81.361 46.974c14.736 8.5 23.9 24.4 23.9 41.38v93.947 c0 17.018-9.154 32.873-23.891 41.381l-81.361 46.974C146.297 282.2 138 284.4 129.6 284.431z" class="style1"/><path d="M234.895 54.361L153.534 7.387C146.297 3.2 138 1 129.6 1c-8.392 0-16.653 2.209-23.891 6.4 l-81.36 46.974C9.655 62.9 0.5 78.7 0.5 95.742v93.946c0 17 9.2 32.9 23.9 41.381l81.36 47 c7.238 4.2 15.5 6.4 23.9 6.389c8.393 0 16.654-2.209 23.891-6.389l81.361-46.973c14.736-8.508 23.891-24.363 23.891-41.381 V95.742C258.786 78.7 249.6 62.9 234.9 54.361z M250.282 189.688c0 13.988-7.525 27.021-19.639 34.016l-81.361 47 c-5.945 3.434-12.738 5.248-19.639 5.248c-6.901 0-13.692-1.814-19.639-5.248l-81.36-46.975 c-12.114-6.994-19.64-20.027-19.64-34.016V95.742c0-13.988 7.525-27.022 19.64-34.016l81.36-46.974 c5.947-3.433 12.738-5.248 19.639-5.248c6.9 0 13.7 1.8 19.6 5.248l81.361 46.974c12.113 7 19.6 20 19.6 34 V189.688z" class="style0"/><path d="M250.282 189.7 c0 13.988-7.525 27.021-19.639 34.016l-81.361 46.975c-5.945 3.434-12.738 5.248-19.639 5.248c-6.901 0-13.692-1.814-19.639-5.248 l-81.36-46.975c-12.114-6.994-19.64-20.027-19.64-34.016V95.742c0-13.988 7.525-27.022 19.64-34.016l81.36-46.974 c5.947-3.433 12.738-5.248 19.639-5.248c6.9 0 13.7 1.8 19.6 5.248l81.361 46.974c12.113 7 19.6 20 19.6 34 V189.688z" class="style2"/></svg>